<svg xmlns="http://www.w3.org/2000/svg" viewBox="0 0 64 48" role="img" aria-labelledby="folderCoreTitle">
  <title id="folderCoreTitle">Folder icon</title>
  <defs>
    <linearGradient id="folderGradient" x1="0" y1="0" x2="1" y2="1">
      <stop offset="0%" stop-color="#D9C6A8"/>
      <stop offset="100%" stop-color="#E8D8C0"/>
    </linearGradient>
  </defs>
  <path d="M9 10.5a3.5 3.5 0 0 1 3.5-3.5h11.4a4.5 4.5 0 0 1 3.3 1.4l1.9 2a4.5 4.5 0 0 0 3.3 1.4H51a3.5 3.5 0 0 1 3.5 3.5v22a5.5 5.5 0 0 1-5.5 5.5H14.5A5.5 5.5 0 0 1 9 37V10.5Z" fill="url(#folderGradient)" stroke="#C2AC8B" stroke-width="1.5" stroke-linejoin="round"/>
  <path d="M7 17.5c0-2.2 1.8-4 4-4h42c2.2 0 4 1.8 4 4v2.6a4.9 4.9 0 0 1-4.9 4.9H11.9A4.9 4.9 0 0 1 7 20.1v-2.6Z" fill="#F0E5D4" stroke="#D3C1A6" stroke-width="1.2"/>
  <circle cx="24" cy="28" r="4.5" fill="#17B6A9"/>
  <path d="M36.6 28h3.2" stroke="#1A1F2E" stroke-width="1.6" stroke-linecap="round"/>
  <path d="M27.5 28H32" stroke="#1A1F2E" stroke-width="1.6" stroke-linecap="round"/>
  <path d="m21 28.5 3.5 3.5" stroke="#fff" stroke-width="1.6" stroke-linecap="round"/>
</svg>
