<svg xmlns="http://www.w3.org/2000/svg" viewBox="0 0 64 48" role="img" aria-labelledby="folderGearTitle">
  <title id="folderGearTitle">Folder with gear</title>
  <defs>
    <linearGradient id="folderGearGradient" x1="0" y1="0" x2="1" y2="1">
      <stop offset="0%" stop-color="#E1CFB2"/>
      <stop offset="100%" stop-color="#D2BE9F"/>
    </linearGradient>
  </defs>
  <path d="M9 11a3 3 0 0 1 3-3h12a4 4 0 0 1 2.8 1.1l2.2 2.2a4 4 0 0 0 2.8 1.1H51a3 3 0 0 1 3 3v21.5A5.5 5.5 0 0 1 48.5 42H14.5A5.5 5.5 0 0 1 9 36.5V11Z" fill="url(#folderGearGradient)" stroke="#C2AC8B" stroke-width="1.5" stroke-linejoin="round"/>
  <path d="M7 18c0-2 1.6-3.6 3.6-3.6h42.8c2 0 3.6 1.6 3.6 3.6v2.5a5 5 0 0 1-5 5H12a5 5 0 0 1-5-5V18Z" fill="#F6EDDF" stroke="#D3C1A6" stroke-width="1.2"/>
  <g transform="translate(24 23)">
    <circle cx="8" cy="8" r="6.5" fill="#17B6A9"/>
    <path d="M8 0.5V3M8 13v2.5M1.2 3.9l2.1 1.2M12.7 12.5l2.2 1.2M0.5 8H3M13 8h2.5M1.2 12.1l2.1-1.2M12.7 3.5l2.2-1.2" stroke="#fff" stroke-width="1.2" stroke-linecap="round"/>
    <circle cx="8" cy="8" r="2.5" fill="#1A1F2E"/>
  </g>
</svg>
